<?xml version="1.0" encoding="UTF-8"?>
<svg width="22px" height="22px" viewBox="0 0 22 22" version="1.1" xmlns="http://www.w3.org/2000/svg" xmlns:xlink="http://www.w3.org/1999/xlink">
    <title>Icon / 01_Nav1 / Configure2</title>
    <g id="Icon-/-01_Nav1-/-Configure2" stroke="none" stroke-width="1" fill="none" fill-rule="evenodd">
        <rect id="transparent-bg" x="0" y="0" width="22" height="22"></rect>
        <g id="maintenance" opacity="0.66" transform="translate(2.000000, 2.000000)" fill="#C5CAD8" fill-rule="nonzero">
            <path d="M9.00609691,0 C5.75023746,-0.0044673201 2.74619119,1.7511062 1.15194606,4.58999751 C-0.442299073,7.42888882 -0.377771386,10.9077511 1.32065524,13.6855661 L4.25974339,11.0750263 C3.49505501,9.32472758 3.75845851,7.29532147 4.94463523,5.79824101 C6.13081195,4.30116054 8.04619509,3.58070749 9.92494227,3.92494613 C10.0158555,3.93897368 10.0910942,4.00305691 10.1194103,4.09058091 C10.1477264,4.17810491 10.1242819,4.2741156 10.0588138,4.338738 L7.01627947,7.38132529 L7.47265962,10.1318242 C7.5098491,10.3362636 7.66983832,10.4962556 7.87427415,10.5334457 L10.6308102,10.995919 L13.6733445,7.9533317 C13.7378703,7.89226071 13.830004,7.87011181 13.915237,7.8951808 C14.0004701,7.92024979 14.0659416,7.98875393 14.0871292,8.07503519 C14.4353822,9.95416238 13.7178393,11.8720421 12.2216799,13.061089 C10.7255205,14.2501359 8.69518196,14.5160875 6.94325865,13.7525031 L4.32667914,16.6916424 C7.5805342,18.6685681 11.7263238,18.3840581 14.6796183,15.9811589 C17.6329128,13.5782597 18.7546693,9.57691819 17.4808885,5.9889379 C16.2071077,2.40095761 12.8134141,0.00271682638 9.00609691,0 L9.00609691,0 Z" id="Path"></path>
        </g>
    </g>
</svg>
