<svg t="1703600067369" class="icon" viewBox="0 0 1024 1024" version="1.1" xmlns="http://www.w3.org/2000/svg" p-id="1239" width="200" height="200"><path d="M379.847111 458.979556l322.474667 171.264a28.273778 28.273778 0 0 1 14.08 32.085333c-7.025778 26.140444-13.966222 61.724444-18.289778 104.96-6.542222 65.507556-5.176889 132.977778 6.769778 199.879111 2.759111 16.725333-12.003556 31.004444-29.639111 27.448889l-100.408889-25.201778a24.007111 24.007111 0 0 1-17.066667-26.737778l2.844445-18.944 0.796444-5.575111-11.576889 33.649778a22.328889 22.328889 0 0 1-24.462222 14.819556l-3.157333-0.711112a1083.022222 1083.022222 0 0 1-77.368889-27.079111 675.128889 675.128889 0 0 1-26.908445-11.264c-20.195556-9.016889-36.238222-17.635556-47.928889-26.339555-8.561778-6.542222-12.714667-18.375111-7.537777-27.875556l1.848888-4.522666 2.417778-6.144c4.551111-11.52 11.434667-29.44 20.195556-52.423112l1.024-2.673777-50.915556 56.405333a24.064 24.064 0 0 1-26.481778 5.688889l-3.328-1.706667a1501.354667 1501.354667 0 0 1-64-40.277333c-20.252444-13.624889-35.555556-25.031111-44.828444-33.991111a23.580444 23.580444 0 0 1-3.413333-30.435556l7.196444-10.922666 0.711111-1.137778-9.671111 7.168a24.291556 24.291556 0 0 1-27.875555-0.682667l-2.730667-2.275555-69.489778-69.347556a24.035556 24.035556 0 0 1 4.807111-38.883556 1473.223111 1473.223111 0 0 0 106.979556-64.426666c62.179556-41.244444 111.388444-81.379556 139.463111-116.821334a27.790222 27.790222 0 0 1 35.470222-6.968888z m-9.557333 45.511111l-3.726222 4.323555c-32.170667 35.555556-79.416889 73.016889-136.96 111.189334a1517.454222 1517.454222 0 0 1-84.280889 51.911111l-2.019556 1.137777 38.343111 38.314667 93.326222-69.006222c19.114667-14.136889 43.377778 7.253333 33.564445 27.448889l-1.479111 2.616889a31535.331556 31535.331556 0 0 1-37.973334 58.88l-0.256 0.398222c-10.183111 15.758222-18.659556 28.842667-25.002666 38.570667l-1.422222 2.133333 4.323555 3.214222c4.608 3.384889 9.784889 7.054222 15.530667 10.979556l5.888 3.982222 9.244444 6.172444c9.244444 6.030222 17.863111 11.548444 26.510222 16.924445l11.832889 7.253333 118.414223-131.214222c15.872-17.578667 43.804444-1.649778 38.371555 20.081778l-0.853333 2.759111-2.958222 7.793778-7.708445 20.508444c-8.021333 21.219556-16.042667 42.467556-23.580444 62.293333l-0.341334 0.995556c-10.581333 27.875556-19.171556 50.261333-25.457777 66.360889l-1.393778 3.470222 2.844444 1.564444c4.949333 2.673778 10.524444 5.432889 16.696889 8.305778l6.371556 2.901334c7.736889 3.441778 16.128 6.968889 25.116444 10.524444 16.384 6.456889 33.820444 12.714667 51.114667 18.488889l2.332444 0.796444 5.774222-16.668444c16.384-51.712 43.605333-114.204444 61.155556-148.48l3.185778-6.115556c1.194667-2.275556 1.194667-2.275556 5.290666-6.684444 10.040889-6.826667 10.040889-6.826667 28.216889-1.137778 9.671111 13.824 9.671111 13.824 9.130667 16.839111 0.227556 2.417778 0.142222 4.977778-0.085333 8.476445-0.341333 5.034667-1.137778 12.515556-2.275556 22.328889-2.019556 16.810667-5.176889 40.391111-9.244444 69.034666l-0.483556 3.470222a10730.752 10730.752 0 0 1-10.581333 72.704l-0.113778 0.540445 51.370667 12.885333-0.597334-4.551111a776.96 776.96 0 0 1-3.356444-159.004444l1.564444-17.351111c3.754667-37.546667 9.386667-69.745778 15.416889-95.459556l0.910222-3.754667-299.690666-159.118222zM795.022222 793.315556a33.905778 33.905778 0 1 1 0 67.84 33.905778 33.905778 0 0 1 0-67.84z m78.762667-226.446223a67.84 67.84 0 1 1 0 135.651556 67.84 67.84 0 0 1 0-135.68zM797.866667 67.185778a87.665778 87.665778 0 0 1 36.096 118.528l-109.425778 205.368889 2.218667 2.275555c55.466667 59.164444 71.68 135.936 38.769777 208.810667l-3.555555 7.537778a27.875556 27.875556 0 0 1-37.916445 12.145777L379.136 438.328889a27.875556 27.875556 0 0 1-11.178667-38.144c41.130667-73.301333 116.138667-105.329778 198.997334-91.875556l2.958222 0.540445 109.568-205.653334a87.608889 87.608889 0 0 1 118.414222-35.982222z m-77.368889 57.912889l-115.882667 217.514666-3.754667 7.111111-7.367111 3.242667-1.137777 0.512-1.820445 0.796445-2.844444 1.223111-7.111111 3.128889-7.566223-1.735112c-62.577778-14.620444-118.101333 2.304-152.945777 48.298667l-1.166223 1.592889 308.906667 164.408889 0.739556-1.848889c17.777778-52.451556 2.844444-105.671111-40.021334-148.622222l-5.518222-5.290667-5.262222-4.920889-1.564445-7.025778a80.952889 80.952889 0 0 1-0.853333-4.323555l-0.483556-2.872889-1.479111-7.964444 3.811556-7.196445 115.740444-217.287111a41.073778 41.073778 0 0 0-72.448-38.741333zM240.867556 323.982222a50.858667 50.858667 0 1 1 0 101.745778 50.858667 50.858667 0 0 1 0-101.745778z" p-id="1240"></path></svg>