<svg t="1703598593585" class="icon" viewBox="0 0 1024 1024" version="1.1" xmlns="http://www.w3.org/2000/svg" p-id="1063" width="200" height="200"><path d="M0 0h1024v1024H0z" fill="#ffffff" fill-opacity="0" p-id="1064"></path><path d="M63.301818 415.092364l876.450909-366.452364a27.182545 27.182545 0 0 1 36.910546 31.883636l-218.298182 876.218182a27.322182 27.322182 0 0 1-43.892364 14.382546l-189.579636-158.487273a27.182545 27.182545 0 0 0-36.724364 1.722182L390.981818 911.825455a27.182545 27.182545 0 0 1-46.452363-19.269819V686.545455c0-7.261091 2.839273-14.196364 7.959272-19.316364l284.392728-302.173091-355.793455 256.744727a27.182545 27.182545 0 0 1-33.792-0.884363L56.32 461.312a27.415273 27.415273 0 0 1 6.981818-46.219636z" p-id="1065"></path></svg>